# xmcd
#
# Track frame offsets:
#	150
#	10660
#	24665
#	39155
#	54880
#	68635
#	82630
#	95975
#	107750
#	121475
#	133555
#	146690
#	158500
#	170295
#	182475
#	195120
#	209020
#	222215
#	234675
#	246265
#
# Disc length: 3476 seconds
#
# Revision: 1
# Processed by: cddbd v1.5.2PL0 Copyright (c) Steve Scherf et al.
# Submitted via: audiograbber 1.83.01
#
DISCID=030d9214
DTITLE=Verschiedene - American Roots
DYEAR=1900
DGENRE=Country
TTITLE0=Woody Guthrie - This Land Is Your Land
TTITLE1=The Carter Family - Foggy Mountain Top
TTITLE2=Vernon Dalhart - The Wreck Of Old '97
TTITLE3=Jimmie Ropdgers - Mississippi Delta Blues
TTITLE4=Bill Monroe - Blue Moon Of Kentucky
TTITLE5=Uncle Dave Macon - When The Train Comes Along
TTITLE6=The Carter Family - Are Your Lonesom Tonight?
TTITLE7=Flatt and Scruggs - My Cabin In The Hills Of Caroline
TTITLE8=Woody Guthrie - House Of Rising Sun
TTITLE9=Wayne Raney - Lost John Boogie
TTITLE10=Jimmie Rodgers - In The Jailhouse Now
TTITLE11=The Delmore Brothers - Brow's Ferry Blues
TTITLE12=Bill Monroe - Rocky Road Blues
TTITLE13=Flatt and Scruggs - Foggy Mountain Breakdown
TTITLE14=Wayne Raney - Jack And Jill Boogie
TTITLE15=The Carter Family - Chewing Gum
TTITLE16=Roy Acuff - Wabash Connonball
TTITLE17=The Delmore Brothers - Freight Train Boogie
TTITLE18=Bill Monroe - Orange Blossom Special
TTITLE19=Wody Guthrie - Dusty Old Boom 
EXTD=
EXTT0=
EXTT1=
EXTT2=
EXTT3=
EXTT4=
EXTT5=
EXTT6=
EXTT7=
EXTT8=
EXTT9=
EXTT10=
EXTT11=
EXTT12=
EXTT13=
EXTT14=
EXTT15=
EXTT16=
EXTT17=
EXTT18=
EXTT19=
PLAYORDER=
